<svg width="24" height="24" viewBox="0 0 24 24" fill="none" xmlns="http://www.w3.org/2000/svg">
<circle opacity="0.2" cx="12" cy="12" r="11.5" stroke="#99A5B8"/>
<path fill-rule="evenodd" clip-rule="evenodd" d="M13.5829 7.05716L13.2178 7L13.1269 7.35822C13.0911 7.49937 13.0578 7.64155 13.027 7.78471C12.6892 7.75104 12.3467 7.73381 12.0003 7.73381C11.6537 7.73381 11.311 7.75106 10.973 7.78477C10.9422 7.64159 10.9089 7.49939 10.8731 7.35822L10.7822 7L10.4171 7.05716C9.5437 7.19389 8.70596 7.44195 7.91806 7.78671L7.80111 7.83788L7.73452 7.94681C6.63521 9.74526 6 11.8731 6 14.1516L6.0003 14.237L6.00164 14.4296L6.15173 14.5503C7.76288 15.8462 9.79352 16.62 12 16.62C13.2522 16.62 14.4479 16.3708 15.5423 15.9183L15.6473 15.9205L15.7375 15.835C16.4974 15.5003 17.2062 15.0668 17.8483 14.5503L17.9984 14.4296L17.9997 14.237L18 14.1516C18 11.8731 17.3648 9.74526 16.2655 7.94681L16.1989 7.83789L16.0819 7.78671C15.294 7.44195 14.4563 7.19389 13.5829 7.05716ZM16.9947 12.0675C16.9139 11.6385 16.8085 11.2186 16.6802 10.8093L16.9947 12.0675Z" fill="white"/>
<path fill-rule="evenodd" clip-rule="evenodd" d="M9.4364 14.7199C10.2489 14.962 11.1097 15.092 12.0009 15.092C12.8922 15.092 13.7532 14.9619 14.5659 14.7197C14.3916 14.3584 14.2362 13.9863 14.1009 13.6047C13.4329 13.7919 12.7286 13.892 12.0009 13.892C11.2734 13.892 10.5692 13.7919 9.90143 13.6049C9.76612 13.9865 9.61068 14.3586 9.4364 14.7199Z" fill="#061F0F"/>
<path fill-rule="evenodd" clip-rule="evenodd" d="M10.0543 12.5136C10.5916 12.5136 11.0272 12.0454 11.0272 11.4678C11.0272 10.8901 10.5916 10.4219 10.0543 10.4219C9.51695 10.4219 9.08136 10.8901 9.08136 11.4678C9.08136 12.0454 9.51695 12.5136 10.0543 12.5136ZM13.9466 12.5136C14.4839 12.5136 14.9195 12.0454 14.9195 11.4678C14.9195 10.8901 14.4839 10.4219 13.9466 10.4219C13.4092 10.4219 12.9737 10.8901 12.9737 11.4678C12.9737 12.0454 13.4092 12.5136 13.9466 12.5136Z" fill="#061F0F"/>
</svg>
