<svg width="24" height="24" viewBox="0 0 24 24" fill="none" xmlns="http://www.w3.org/2000/svg">
<circle opacity="0.2" cx="12" cy="12" r="11.5" stroke="white"/>
<path d="M18.3612 8.94053C17.9412 9.12053 17.4612 9.24054 16.9812 9.30054C17.4612 9.00054 17.8812 8.52054 18.0612 7.98054C17.5812 8.28054 17.1012 8.46054 16.5012 8.58054C16.0812 8.10054 15.4212 7.80054 14.7612 7.80054C13.4412 7.80054 12.3612 8.88054 12.3612 10.2005C12.3612 10.3805 12.3612 10.5605 12.4212 10.7405C10.4412 10.6205 8.64119 9.66054 7.44119 8.22054C7.26119 8.58054 7.14119 9.00054 7.14119 9.42054C7.14119 10.2605 7.56119 10.9805 8.22119 11.4005C7.80119 11.4005 7.44119 11.2805 7.14119 11.1005C7.14119 12.2405 7.98119 13.2605 9.06119 13.4405C8.88119 13.5005 8.6412 13.5005 8.4012 13.5005C8.2212 13.5005 8.10119 13.5005 7.92119 13.4405C8.22119 14.4005 9.1212 15.1205 10.2012 15.1205C9.3612 15.7805 8.3412 16.1405 7.2012 16.1405C7.0212 16.1405 6.8412 16.1405 6.6012 16.0805C7.6812 16.7405 8.94119 17.1605 10.3212 17.1605C14.7612 17.1605 17.1612 13.5005 17.1612 10.3205V10.0205C17.6412 9.84054 18.0612 9.42053 18.3612 8.94053Z" fill="white"/>
</svg>
