<svg width="24" height="24" viewBox="0 0 24 24" fill="none" xmlns="http://www.w3.org/2000/svg">
<rect opacity="0.2" x="0.5" y="0.5" width="23" height="23" rx="11.5" stroke="white"/>
<path d="M17.5 7.68638L16.6229 8.52691C16.5462 8.58538 16.5096 8.6804 16.5243 8.77176V14.9588C16.5096 15.0538 16.5462 15.1488 16.6229 15.2037L17.4817 16.0442V16.2306H13.1694V16.0515L14.0575 15.189C14.1452 15.1013 14.1452 15.0757 14.1452 14.9442V9.9412L11.6748 16.2123H11.3422L8.46611 9.9412V14.1439C8.44053 14.3193 8.50266 14.4983 8.62691 14.6262L9.78173 16.0259V16.2123H6.5V16.0259L7.65482 14.6262C7.77907 14.4983 7.83389 14.3193 7.80465 14.1439V9.28339C7.81927 9.14817 7.76811 9.01661 7.66578 8.92525L6.63887 7.68638V7.5H9.82924L12.2924 12.9086L14.4595 7.50365H17.5V7.68638Z" fill="white"/>
</svg>
