<svg width="24" height="24" viewBox="0 0 24 24" fill="none" xmlns="http://www.w3.org/2000/svg">
<circle opacity="0.2" cx="12" cy="12" r="11.5" stroke="white"/>
<path d="M5.60922 12.2239L8.36808 13.2526L9.44356 16.7129C9.49032 16.9467 9.77088 16.9934 9.95793 16.8532L11.501 15.5906C11.6413 15.4504 11.8751 15.4504 12.0621 15.5906L14.821 17.6013C15.008 17.7416 15.2886 17.6481 15.3353 17.4143L17.3928 7.59466C17.4395 7.36086 17.2057 7.12706 16.9719 7.22058L5.60922 11.616C5.32866 11.7096 5.32866 12.1304 5.60922 12.2239ZM9.30329 12.7383L14.7275 9.4183C14.821 9.37154 14.9145 9.51182 14.821 9.55858L10.3788 13.7202C10.2385 13.8605 10.0982 14.0476 10.0982 14.2814L9.95793 15.4036C9.95793 15.5439 9.72412 15.5906 9.67736 15.4036L9.11623 13.3462C8.97595 13.1124 9.06949 12.8318 9.30329 12.7383Z" fill="white"/>
</svg>
